# xmcd CD database file
#
# Track frame offsets:
#	150
#	21197
#	38960
#	51367
#	73095
#	91787
#	105350
#	125175
#	139352
#	158180
#	178247
#	198877
#	221280
#	237482
#	253017
#	270217
#	288657
#
# Disc length: 4062 seconds
#
# Revision: 0
# Processed by: cddbd v1.5.2PL0 Copyright (c) Steve Scherf et al.
# Submitted via: CDex 1.51
#
DISCID=fe0fdc11
DTITLE=The Classic jazz band - Down in honky tonk town
DYEAR=1994
DGENRE=Jazz
TTITLE0=Down in honky tonk town
TTITLE1=My buckets got a hole in it
TTITLE2=Little girl
TTITLE3=Deep night
TTITLE4=One sweet letter from you
TTITLE5=Sweet man
TTITLE6=I´m more than satisfied
TTITLE7=S´wonderful
TTITLE8=Sugar blues
TTITLE9=There´s a rainbow round my shoulder
TTITLE10=True blue Lue
TTITLE11=Somebody loves me
TTITLE12=Higginbotham blues
TTITLE13=Thats my weakness now
TTITLE14=She´s funny that way
TTITLE15=Sweet Sue, just you
TTITLE16=When you wore a tulip
EXTD=YEAR: 1994
EXTT0=
EXTT1=
EXTT2=
EXTT3=
EXTT4=
EXTT5=
EXTT6=
EXTT7=
EXTT8=
EXTT9=
EXTT10=
EXTT11=
EXTT12=
EXTT13=
EXTT14=
EXTT15=
EXTT16=
PLAYORDER=
